<svg width="70" height="70" viewBox="0 0 70 70" fill="none" xmlns="http://www.w3.org/2000/svg">
<mask id="mask0" mask-type="alpha" maskUnits="userSpaceOnUse" x="0" y="0" width="70" height="70">
<rect width="70" height="70" rx="20" fill="#D8D8F8"/>
</mask>
<g mask="url(#mask0)">
<rect width="70" height="70" rx="20" fill="#D8D8F8"/>
<mask id="mask1" mask-type="alpha" maskUnits="userSpaceOnUse" x="12" y="23" width="46" height="54">
<rect x="12.25" y="23.625" width="45.5" height="52.5" rx="10" fill="#7F74EB"/>
</mask>
<g mask="url(#mask1)">
<rect x="12.25" y="23.625" width="45.5" height="52.5" rx="10" fill="#7F74EB"/>
<circle cx="35" cy="22.75" r="16.625" fill="#695FC8"/>
</g>
<path d="M21.4375 49.4375H41.125" stroke="white" stroke-width="3" stroke-linecap="round" stroke-linejoin="round"/>
<path opacity="0.6" d="M21.4375 56.4375H31.5" stroke="white" stroke-width="3" stroke-linecap="round" stroke-linejoin="round"/>
<circle cx="35" cy="21" r="12.25" fill="#3A3379"/>
</g>
<path d="M33.4857 24.1236C30.7434 24.7734 28.6503 27.1495 28.3662 30.0685H31.0315C31.1987 28.2413 32.0016 26.5162 32.7637 25.2376C33.0112 24.8223 33.2586 24.4474 33.4857 24.1236Z" fill="white"/>
<path d="M28.3662 31.4288C28.6503 34.3478 30.7434 36.7239 33.4857 37.3737C33.2586 37.0498 33.0112 36.6749 32.7637 36.2596C32.0016 34.9811 31.1987 33.2559 31.0315 31.4288H28.3662Z" fill="white"/>
<path d="M36.5142 37.3737C36.7414 37.0498 36.9887 36.6749 37.2362 36.2596C37.9983 34.9811 38.8013 33.2559 38.9684 31.4288H41.6337C41.3496 34.3478 39.2565 36.7239 36.5142 37.3737Z" fill="white"/>
<path d="M41.6337 30.0685H38.9684C38.8013 28.2413 37.9983 26.5162 37.2362 25.2376C36.9887 24.8223 36.7414 24.4474 36.5142 24.1236C39.2565 24.7734 41.3496 27.1495 41.6337 30.0685Z" fill="white"/>
<path d="M36.097 25.9444C36.7999 27.1235 37.464 28.5892 37.6281 30.0685H32.3718C32.5359 28.5892 33.2001 27.1235 33.9029 25.9444C34.3012 25.2762 34.7002 24.7194 35 24.3295C35.2997 24.7194 35.6987 25.2762 36.097 25.9444Z" fill="white"/>
<path d="M33.9029 35.5529C33.2001 34.3737 32.5359 32.9081 32.3718 31.4288H37.6281C37.464 32.9081 36.7999 34.3737 36.097 35.5529C35.6987 36.2211 35.2997 36.7778 35 37.1678C34.7002 36.7778 34.3012 36.2211 33.9029 35.5529Z" fill="white"/>
</svg>
