<svg width="30" height="30" viewBox="0 0 30 30" fill="none" xmlns="http://www.w3.org/2000/svg">
<path fill-rule="evenodd" clip-rule="evenodd" d="M19.6339 11.6161C20.122 12.1043 20.122 12.8957 19.6339 13.3839L14.6339 18.3839C14.1457 18.872 13.3543 18.872 12.8661 18.3839L10.3661 15.8839C9.87796 15.3957 9.87796 14.6043 10.3661 14.1161C10.8543 13.628 11.6457 13.628 12.1339 14.1161L13.75 15.7322L17.8661 11.6161C18.3543 11.128 19.1457 11.128 19.6339 11.6161Z" fill="white"/>
<path fill-rule="evenodd" clip-rule="evenodd" d="M15 5C9.47715 5 5 9.47715 5 15C5 20.5228 9.47715 25 15 25C20.5228 25 25 20.5228 25 15C25 9.47715 20.5228 5 15 5ZM2.5 15C2.5 8.09644 8.09644 2.5 15 2.5C21.9036 2.5 27.5 8.09644 27.5 15C27.5 21.9036 21.9036 27.5 15 27.5C8.09644 27.5 2.5 21.9036 2.5 15Z" fill="white"/>
</svg>
