<svg width="26" height="26" viewBox="0 0 26 26" fill="none" xmlns="http://www.w3.org/2000/svg">
<path fill-rule="evenodd" clip-rule="evenodd" d="M17.016 10.0673C17.4391 10.4904 17.4391 11.1763 17.016 11.5994L12.6827 15.9327C12.2596 16.3558 11.5737 16.3558 11.1506 15.9327L8.98393 13.766C8.56086 13.343 8.56086 12.657 8.98393 12.234C9.407 11.8109 10.0929 11.8109 10.516 12.234L11.9166 13.6346L15.4839 10.0673C15.907 9.64423 16.5929 9.64423 17.016 10.0673Z" fill="#6E62E4"/>
<path fill-rule="evenodd" clip-rule="evenodd" d="M13 4.33333C8.21349 4.33333 4.33329 8.21353 4.33329 13C4.33329 17.7865 8.21349 21.6667 13 21.6667C17.7864 21.6667 21.6666 17.7865 21.6666 13C21.6666 8.21353 17.7864 4.33333 13 4.33333ZM2.16663 13C2.16663 7.01691 7.01688 2.16666 13 2.16666C18.983 2.16666 23.8333 7.01691 23.8333 13C23.8333 18.9831 18.983 23.8333 13 23.8333C7.01688 23.8333 2.16663 18.9831 2.16663 13Z" fill="#6E62E4"/>
</svg>
